<svg xmlns="http://www.w3.org/2000/svg" version="1.1" xmlnsXlink="http://www.w3.org/1999/xlink" xmlnsSvgjs="http://svgjs.dev/svgjs" viewBox="0 0 1422 800"><g stroke-width="3" stroke="#a94ff5" fill="none" stroke-linecap="round"><path d="M 0 1210 Q 355.5 -100 711 400 Q 1066.5 900 1422 1210" stroke-dasharray="14 8" opacity="0.80"></path><path d="M 0 1188 Q 355.5 -100 711 400 Q 1066.5 900 1422 1188" stroke-dasharray="26 1" opacity="0.80"></path><path d="M 0 1166 Q 355.5 -100 711 400 Q 1066.5 900 1422 1166" stroke-dasharray="23 2" opacity="0.14"></path><path d="M 0 1144 Q 355.5 -100 711 400 Q 1066.5 900 1422 1144" stroke-dasharray="27 18" opacity="0.69"></path><path d="M 0 1122 Q 355.5 -100 711 400 Q 1066.5 900 1422 1122" stroke-dasharray="22 19" opacity="0.42"></path><path d="M 0 1100 Q 355.5 -100 711 400 Q 1066.5 900 1422 1100" stroke-dasharray="1 5" opacity="0.94"></path><path d="M 0 1078 Q 355.5 -100 711 400 Q 1066.5 900 1422 1078" stroke-dasharray="24 14" opacity="0.12"></path><path d="M 0 1056 Q 355.5 -100 711 400 Q 1066.5 900 1422 1056" stroke-dasharray="16 6" opacity="0.32"></path><path d="M 0 1034 Q 355.5 -100 711 400 Q 1066.5 900 1422 1034" stroke-dasharray="23 22" opacity="0.27"></path><path d="M 0 1012 Q 355.5 -100 711 400 Q 1066.5 900 1422 1012" stroke-dasharray="26 21" opacity="0.31"></path><path d="M 0 990 Q 355.5 -100 711 400 Q 1066.5 900 1422 990" stroke-dasharray="26 22" opacity="0.82"></path><path d="M 0 968 Q 355.5 -100 711 400 Q 1066.5 900 1422 968" stroke-dasharray="5 15" opacity="0.58"></path><path d="M 0 946 Q 355.5 -100 711 400 Q 1066.5 900 1422 946" stroke-dasharray="12 16" opacity="0.94"></path><path d="M 0 924 Q 355.5 -100 711 400 Q 1066.5 900 1422 924" stroke-dasharray="30 27" opacity="0.10"></path><path d="M 0 902 Q 355.5 -100 711 400 Q 1066.5 900 1422 902" stroke-dasharray="1 4" opacity="0.31"></path><path d="M 0 880 Q 355.5 -100 711 400 Q 1066.5 900 1422 880" stroke-dasharray="3 17" opacity="0.64"></path><path d="M 0 858 Q 355.5 -100 711 400 Q 1066.5 900 1422 858" stroke-dasharray="4 11" opacity="0.43"></path><path d="M 0 836 Q 355.5 -100 711 400 Q 1066.5 900 1422 836" stroke-dasharray="5 5" opacity="0.26"></path><path d="M 0 814 Q 355.5 -100 711 400 Q 1066.5 900 1422 814" stroke-dasharray="27 6" opacity="0.39"></path><path d="M 0 792 Q 355.5 -100 711 400 Q 1066.5 900 1422 792" stroke-dasharray="21 11" opacity="0.13"></path><path d="M 0 770 Q 355.5 -100 711 400 Q 1066.5 900 1422 770" stroke-dasharray="26 1" opacity="0.35"></path><path d="M 0 748 Q 355.5 -100 711 400 Q 1066.5 900 1422 748" stroke-dasharray="8 20" opacity="0.79"></path><path d="M 0 726 Q 355.5 -100 711 400 Q 1066.5 900 1422 726" stroke-dasharray="7 4" opacity="0.39"></path><path d="M 0 704 Q 355.5 -100 711 400 Q 1066.5 900 1422 704" stroke-dasharray="18 28" opacity="0.22"></path><path d="M 0 682 Q 355.5 -100 711 400 Q 1066.5 900 1422 682" stroke-dasharray="1 3" opacity="0.21"></path><path d="M 0 660 Q 355.5 -100 711 400 Q 1066.5 900 1422 660" stroke-dasharray="0 14" opacity="0.19"></path><path d="M 0 638 Q 355.5 -100 711 400 Q 1066.5 900 1422 638" stroke-dasharray="8 14" opacity="0.47"></path><path d="M 0 616 Q 355.5 -100 711 400 Q 1066.5 900 1422 616" stroke-dasharray="26 21" opacity="0.53"></path><path d="M 0 594 Q 355.5 -100 711 400 Q 1066.5 900 1422 594" stroke-dasharray="23 21" opacity="0.50"></path><path d="M 0 572 Q 355.5 -100 711 400 Q 1066.5 900 1422 572" stroke-dasharray="8 10" opacity="0.64"></path><path d="M 0 550 Q 355.5 -100 711 400 Q 1066.5 900 1422 550" stroke-dasharray="14 17" opacity="0.52"></path><path d="M 0 528 Q 355.5 -100 711 400 Q 1066.5 900 1422 528" stroke-dasharray="12 8" opacity="0.56"></path><path d="M 0 506 Q 355.5 -100 711 400 Q 1066.5 900 1422 506" stroke-dasharray="15 27" opacity="0.69"></path><path d="M 0 484 Q 355.5 -100 711 400 Q 1066.5 900 1422 484" stroke-dasharray="2 7" opacity="0.29"></path><path d="M 0 462 Q 355.5 -100 711 400 Q 1066.5 900 1422 462" stroke-dasharray="13 17" opacity="0.37"></path><path d="M 0 440 Q 355.5 -100 711 400 Q 1066.5 900 1422 440" stroke-dasharray="19 9" opacity="0.12"></path><path d="M 0 418 Q 355.5 -100 711 400 Q 1066.5 900 1422 418" stroke-dasharray="9 8" opacity="0.24"></path><path d="M 0 396 Q 355.5 -100 711 400 Q 1066.5 900 1422 396" stroke-dasharray="4 0" opacity="0.98"></path><path d="M 0 374 Q 355.5 -100 711 400 Q 1066.5 900 1422 374" stroke-dasharray="5 27" opacity="0.78"></path><path d="M 0 352 Q 355.5 -100 711 400 Q 1066.5 900 1422 352" stroke-dasharray="14 2" opacity="0.82"></path><path d="M 0 330 Q 355.5 -100 711 400 Q 1066.5 900 1422 330" stroke-dasharray="26 19" opacity="0.43"></path><path d="M 0 308 Q 355.5 -100 711 400 Q 1066.5 900 1422 308" stroke-dasharray="1 17" opacity="0.07"></path><path d="M 0 286 Q 355.5 -100 711 400 Q 1066.5 900 1422 286" stroke-dasharray="12 12" opacity="0.20"></path><path d="M 0 264 Q 355.5 -100 711 400 Q 1066.5 900 1422 264" stroke-dasharray="22 25" opacity="0.91"></path><path d="M 0 242 Q 355.5 -100 711 400 Q 1066.5 900 1422 242" stroke-dasharray="6 10" opacity="0.88"></path><path d="M 0 220 Q 355.5 -100 711 400 Q 1066.5 900 1422 220" stroke-dasharray="21 3" opacity="0.09"></path><path d="M 0 198 Q 355.5 -100 711 400 Q 1066.5 900 1422 198" stroke-dasharray="19 22" opacity="0.31"></path><path d="M 0 176 Q 355.5 -100 711 400 Q 1066.5 900 1422 176" stroke-dasharray="9 1" opacity="0.29"></path><path d="M 0 154 Q 355.5 -100 711 400 Q 1066.5 900 1422 154" stroke-dasharray="11 25" opacity="0.87"></path><path d="M 0 132 Q 355.5 -100 711 400 Q 1066.5 900 1422 132" stroke-dasharray="26 18" opacity="0.22"></path><path d="M 0 110 Q 355.5 -100 711 400 Q 1066.5 900 1422 110" stroke-dasharray="29 15" opacity="0.84"></path><path d="M 0 88 Q 355.5 -100 711 400 Q 1066.5 900 1422 88" stroke-dasharray="20 4" opacity="0.07"></path><path d="M 0 66 Q 355.5 -100 711 400 Q 1066.5 900 1422 66" stroke-dasharray="27 4" opacity="0.34"></path><path d="M 0 44 Q 355.5 -100 711 400 Q 1066.5 900 1422 44" stroke-dasharray="18 6" opacity="0.90"></path></g></svg>