<svg xmlns="http://www.w3.org/2000/svg" version="1.1" xmlnsXlink="http://www.w3.org/1999/xlink" xmlnsSvgjs="http://svgjs.dev/svgjs" viewBox="0 0 1422 800"><g fill="none" stroke-width="1.25" stroke="#7827e7" stroke-linecap="round"><path d="M1678.83 524.39C1610.08 552.59 1513.55 585.36 1421.06 621.68 1361.28 657.01 1350.72 693.84 1389.12 729.49 1464.1 760.67 1548.71 786.1 1616.53 801.86 1649.59 808.42 1635.9 801.56 1579.6 780.29 1493.92 752.96 1398.9 718.26 1314.95 684.2 1257.12 665.24 1234.33 666.05 1245.43 696.33 1285.36 757.86 1339.46 847.1 1393.38 951.98 1449.75 1084.1 1405.86 1082.87 1315.7 963.35 1240.42 902.49 1164.08 893.35 1092.91 952.01 1028.69 1063.13 976.4 1188.74 936.23 1277.51 907.27 1291.12 888.29 1224.95 876.27 1113.41 871.31 1022.49 868.77 1004.54 865.99 1079.67 863.91 1271.94 840.99 1236.79 817.16 1064.81 799.45 1054.06 776.53 1149.41 748.33 1290.28 720.13 1380.81 687.31 1358.33 650.1 1240.63 612.81 1104.72 571.06 1036.42 525.25 1072.91 479.71 1187.79 430.88 1304.03 380.09 1350.08 331.7 1299.09 284.16 1177.19 240.25 1048.87 203.39 974.98 174.72 985.99 157.37 1064.95 151.24 1169.15 158.58 1240.69 179.33 1245.54 207.03 1180.09 241.4 1068.37 276.33 951.06 301.14 862.49 312.41 827.27 303.07 844.78 268.87 902.9 210.69 972.9 132.51 1029.22 45.29 1058.24 -40.2 1047.5 -109.49 1001.3 -149.96 926.97 -154.5 839.19 -121.82 751.68 -63.02 669.58 9 603.84 74.01 555.82 109.64 523.58 104.97 505.48 55.99 496.11 -27.72 495.23 -125.81 495.61 -211.67 493.39 -260.96 493.1 -258.69 486.95 -204.5 473.78 -117.58 460.69 -23.91 440.17 44.83 411.97 63 383.77 26.67 348.56 -49.93 306.73 -143.07 264.97 -219.84 216.99 -256.31 164.1 -242.86 113.13 -181.89 60.51 -91.36 10.22 5.3 -31.56 83.56 -63.56 126.6 -80.2 126.92 -81.05 89.88 -62.98 29.75 -27.19 -66.7 35.43 -103.26 74.84 -22.07 -10.11 58.8 -106.78 144.48 -215.51 223.66 -310.6 289.6 -365.09 335.48 -365.07 360.64 -309.82 365.64 -225.81 355.43 -145.49 336.1 -109.39 309.18 -143.58 283.49 -242.43 263.29 -371.79 247.06 -475.92 240.68 -509.93 244.13 -456.73 254.45 -349.09 273.26 -245.54 298.43 -210.44 328.25 -272.38 361.51 -402.08 396.15 -527.86 432.72 -575.25 468.6 -515.28 502.56 -384.97 536.93 -272.83 568.5 -253.16 596.7 -343.66 624.9 -484.54 649.07 -577.06 669.63 -560.76 690.61 -447.74 708.84 -310.39 725.46 -232.81 744.01 -258.3 762.99 -364.13 784.33 -480.83 810.33 -540.07 841.6 -503.78 880.15 -392.19 925.56 -259.97 979.6 -170.82 1042.13 -159.25 1108.64 -222.86 1179.28 -321.14 1249.67 -402.91 1312.47 -432.21 1364.65 -391.68 1400.02 -297.52 1415.2 -179.06 1408.06 -75.13 1379.08 -11.74 1336.87 0.94 1286.39 -30.89 1238.8 -87.38 1209.08 -151.91 1204.14 -199.18 1231.07 -217.24 1289.72 -204.06 1372.75 -159.92 1466.52 -94.65 1551.81 -14.28 1611.84 68.06 1632.19 144.27 1609.84 214.41 1549.94 271.36 1469.19 315.96 1394.57 351.36 1347.06 378.17 1344.47 400.18 1391.82 417.71 1476.88 435.01 1575.59 454.6 1657.8 473.21 1697 496.18 1678.85 524.38Q1678.83 524.39 1678.83 524.39" opacity="0.96"></path><path d="M1635.83 544.65C1571.65 571.36 1481.07 593.98 1391.1 611.94 1326.91 629.04 1304.76 639.97 1327.77 643.56 1388.87 645.01 1467.43 638.3 1540.78 623.9 1591.53 609.83 1603.95 592.35 1575.53 576.34 1512.58 571.24 1428.14 578.19 1339.49 603.9 1261.51 650.89 1207.54 719.69 1183.22 806.74 1189.63 898.34 1220.13 985.14 1264.66 1050.57 1316.01 1080.52 1360.43 1069.21 1389.95 1018.33 1402.14 947.92 1392.38 877.88 1362.68 836.77 1315.93 848.01 1257 915.11 1191.83 1024.58 1122.64 1140.54 1056.07 1225.03 995.32 1244.79 939.75 1194.64 892.74 1096.66 853.82 998.41 821.48 954.36 795.41 990.46 773.65 1097.85 756.01 1226.55 739.95 1313.82 723.75 1312.71 709.19 1225.87 692.7 1101.03 673.3 1012.22 654.26 1016.52 631.56 1113.49 604.84 1247.28 578.12 1335.6 548.02 1323.07 515.03 1219.88 482.39 1087.25 447.6 1001.18 411.77 1005.96 377.59 1095.27 344.16 1213.36 313.32 1293.46 286.61 1294.03 265.23 1211.97 251.27 1087.69 243.89 975.44 245.75 922.59 257.45 943.2 274.34 1022.3 298.32 1117.04 326.33 1184.2 350.33 1197.72 369.49 1148.51 378.02 1054.43 369.49 941.71 342.56 843.81 295.35 782.51 230.81 766.51 153.05 791.49 70.15 841.23 -5.91 902.42 -66.16 952.58 -100.39 979.77 -103.89 981.23 -75.8 953.87 -21.66 904.37 43.16 837.41 105.81 763.33 149.18 690.09 158.02 617.83 128.2 554.78 62.38 501.93 -26.04 455.75 -117.35 418.49 -188.77 387.6 -222.09 360.82 -207.8 336.74 -148.9 313.12 -64.22 290.57 23.65 266.35 87.83 239.63 106.49 212.91 75.99 184.34 7.43 154.85 -80.18 126.44 -158.62 99.23 -205.69 75.63 -210.11 56.13 -169.08 43.89 -93.89 41.6 -2.31 45.97 84.36 61.57 148.13 87.52 177.61 114.46 170.33 143.4 132.93 166.5 74.5 172.13 12.68 156.92 -37.99 114.29 -69.25 45.93 -71.85 -43.97 -45.79 -143.4 5.23 -231.37 74.12 -293.05 151.29 -312.08 230.1 -285.81 300.95 -221.26 358.67 -140.08 401.41 -77.55 427.55 -58.07 439.33 -99.39 437.68 -194.36 427.83 -314.99 414.15 -417.93 396.04 -462.38 380.26 -431.33 369.12 -338.67 359.67 -233.97 356.95 -169.29 360.87 -184.91 367.74 -280.07 380.42 -410.91 397.77 -510.56 416.94 -525.67 439.25 -447.49 463.65 -320.15 488.57 -222.22 514.6 -212.36 541.32 -300.65 568.03 -434.44 594.8 -528.73 621.93 -527.78 649.56 -433.71 678.53 -301 709.75 -203.84 742.78 -192.39 779.59 -266.88 821.19 -380.51 865.74 -472.83 915.92 -491.56 971.67 -427.93 1029.11 -310.1 1090.04 -190.35 1152.01 -116.35 1209.56 -112.27 1262.01 -170.87 1304.83 -259.01 1334.22 -340.66 1347.85 -378.02 1343.34 -357.72 1323.84 -285.07 1289.68 -181.68 1245.89 -76.25 1185.96 33.64 1170.37 15.19 1245.62 -58.74 1324.12 -104.61 1411.83 -130.83 1494.09 -133.95 1555.32 -115.79 1584.38 -77.6 1574.48 -26.2 1530.29 36.11 1461.01 101.04 1384.51 163.58 1324.39 226.45 1296.12 282.66 1310.85 331.58 1368.23 378.38 1454.54 418.73 1547.43 453.67 1621.28 487.75 1654.49 517.93 1635.83 544.65Q1635.83 544.65 1635.83 544.65" opacity="0.45"></path><path d="M1592.85 352.13C1533.15 377.37 1448.62 396.02 1361.92 408.57 1294.78 421.51 1262.68 429.24 1271.02 433.26 1316.94 439.76 1385.59 445.72 1458.64 454.44 1520.65 470.72 1554.54 495.26 1553.25 531.85 1517.55 580.34 1453.47 642.7 1373.38 717.54 1289.69 795.94 1216.3 875.02 1162.68 944.65 1134.07 993.03 1131.2 1014.18 1149.72 1002.21 1185.75 962.74 1228.77 902.2 1270.33 836.85 1306.89 791.18 1329.78 779.42 1336.5 814.26 1327.87 892.82 1303.11 999.42 1265.42 1105.88 1216.89 1178.7 1161.85 1196.02 1104.27 1150.74 1044.23 1064.29 986.67 970.34 933.36 912.32 882.36 922.51 836.86 1001.87 796.65 1122.13 759.32 1231.3 726.23 1281.2 696.37 1246.84 668.17 1147.42 641.75 1031.87 616.26 962.43 591.22 980.22 566.23 1077.68 541 1204.27 515.76 1290.06 490.89 1286.61 466.77 1198.23 443.12 1072.26 421.11 973.76 401.72 949.44 384 1008.1 370.35 1114.78 361.89 1213.97 356.33 1259.62 357 1227.57 364.28 1132.89 373.87 1013.1 388.79 915.54 407.39 872.77 423.54 894.81 438.36 965.04 448 1050.59 446.8 1121.14 434.01 1147.1 406.53 1120.71 363.71 1048.61 306.17 950.37 236.54 850.49 161.91 766.94 87.4 716.13 21.57 700.69 -26.73 718.17 -51.96 756.72 -49.62 802.66 -22.28 849.54 26.66 882.89 87.84 897.88 145.42 895.65 188.94 874.33 206.14 838.62 188.94 790.89 138.62 737.04 62.37 681.98 -24.91 623.94 -105.61 569.68 -161.27 520.91 -179.34 472.71 -154.67 430.6 -92.52 394.47 -10.81 358.8 71.15 328.38 130.85 303.15 149.81 277.92 124.77 258.47 64.21 244.99 -16.97 231.96 -95 225.64 -149.93 226.25 -170.01 227.43 -148.7 234.94 -91.76 247.21 -11.46 256.49 75.29 265.53 151.59 269.54 204.62 261.53 226.61 240.21 217.68 201.02 181.35 144.61 129.4 71.04 74.15 -14.72 23.87 -99.55 -8.95 -175.67 -19.09 -229.26 -6.03 -249.93 30.03 -233.78 83.77 -183.31 150.46 -116.51 222.23 -49.75 292.44 -7.43 358.22 -10.82 413.82 -64.86 457.68 -161.68 512.5 -337.43 510.53 -130.21 505.84 -182.26 504.67 -355.05 526.69 -422.75 549.71 -256.24 566.8 -172.83 588 -171.9 613.23 -257.66 638.46 -384.25 667.14 -479.18 699.2 -492.01 731.49 -417.6 767.58 -294.63 807.54 -185.46 848.03 -141.34 892.52 -179.17 940.6 -274.1 988.41 -380.13 1038.53 -443.07 1089.28 -434.78 1136.56 -358.27 1180.93 -243.76 1219.39 -134.8 1249.1 -67.01 1268.5 -59.86 1275.1 -106.41 1270.14 -186.6 1252.08 -265.1 1222.41 -313.87 1188.3 -318.92 1151.19 -275.67 1117.56 -196.93 1096.9 -98.51 1092.32 -3.32 1109.05 72.24 1148.99 120.32 1209.92 136.73 1286.47 127.24 1367.98 96.49 1444.39 57.64 1503.23 20.67 1534.66 -12.74 1533.23 -32.45 1498.7 -37.22 1440.9 -30.07 1370.56 -9.8 1304.51 19.69 1261.8 56.75 1252.54 97.53 1282.36 138.62 1347.02 182.18 1432.48 222.88 1518.66 259.09 1584.21 295.69 1611.81 326.9 1592.85 352.13Q1592.85 352.13 1592.85 352.13" opacity="0.89"></path><path d="M1549.85 230.01C1494.55 253.76 1416.11 277.45 1333.35 301.66 1264.74 326.73 1224.48 353.96 1219.35 384.92 1249.63 418.84 1305.49 458.86 1373.01 506.37 1439.55 557.91 1488.61 617.01 1510.65 682.25 1502.7 746.48 1464.71 810.25 1403.75 867.49 1328.49 910.49 1250.51 936.03 1180.09 938.71 1124.24 920.02 1088.72 880.34 1074.39 826.41 1080.82 774.48 1102.83 733.63 1134.24 718.63 1172.25 740.27 1207.97 799.21 1236.6 888.91 1257.77 989.49 1266.34 1080.18 1262.21 1136.56 1247.1 1143.16 1221.06 1098.31 1186.79 1016.35 1145.34 930.53 1099.85 871.34 1052.9 866.81 1003.52 925.17 955.57 1029.39 910.33 1142.88 865.19 1221.07 823.65 1232.91 785.94 1172.01 748.82 1067.68 715.27 965.61 685.17 915.56 655.3 945.12 628.47 1041.99 604.72 1161.27 580.97 1244.2 560.86 1248.9 544.48 1175.34 511.31 989.47 506.18 1203.4 517.3 1163.17 523.09 1065.66 528.45 954.41 530.9 865.82 526.18 824.4 514.36 838.12 492.88 894.41 460.4 973.5 416.49 1044.53 361.33 1085.42 298.73 1086.25 230.39 1044.32 161.26 970.96 98.72 879.15 47.07 788.31 12.6 712.69 -1.1 659.28 7.96 633.5 39.09 631.94 84.78 651.57 139.75 682.39 193.82 715.76 233.61 750.38 252.24 776.14 242.78 790.48 203.33 796.34 138.82 790.12 58.87 774.24 -22.04 751.38 -89.24 722.86 -128.68 691.7 -132.72 657.59 -99.45 624.03 -35.53 592.83 42.52 561 118.55 532.86 173.85 509.11 192.97 485.36 173.02 466.57 120.34 452.13 46.31 437.07 -29.42 425.06 -89.46 414.38 -122.48 400.75 -119.62 385.28 -82.27 365.06 -17.94 337.86 61.37 301.9 141.31 254.89 209.62 199.4 255.9 133.51 275.61 59.9 267.73 -12.45 237.71 -81.13 193.85 -137.37 142.33 -172.42 95.18 -182 60.04 -162.58 39.79 -120.95 39.67 -62.71 59.02 -2.03 95.61 40.2 145.99 52.5 204.88 23.65 269.58 -45.27 333.92 -142.73 394.17 -246.55 449.94 -327.58 497.54 -364.33 536.68 -344.11 568.38 -276.71 592.57 -184.81 610.98 -104.69 623.88 -73.23 633.74 -105.92 642.42 -196.78 651.97 -360.41 678.87 -354.53 700.08 -193.57 715.35 -124.69 734.74 -131.76 758.49 -214.66 782.23 -333.94 809.78 -428.43 840.77 -453.32 871.62 -398.6 905.59 -289.54 942.01 -176.05 977.58 -105.96 1014.55 -106.44 1051.61 -171.22 1086.01 -271.3 1118.33 -360.07 1146.59 -401.04 1169.33 -379.11 1185.28 -300.58 1192.57 -193.57 1192.42 -90.43 1182.68 -22.56 1163.51 -4.42 1139.87 -36.07 1110.87 -100.32 1080.15 -172.86 1055.23 -234.51 1037.47 -263.82 1032 -254.34 1043.78 -208.21 1073.54 -134.76 1121.84 -48.84 1185.02 39.06 1258.6 114.08 1334.86 169.38 1429.96 209.45 1473.55 181.54 1409.18 146.65 1346.65 122.56 1282.79 105.64 1231.86 97.19 1207.91 92.76 1216.39 96.74 1258.57 107.6 1327.78 121.43 1410.51 139.78 1489.24 160.97 1546.61 183.02 1568.97 206.26 1549.85 230.01Q1549.85 230.01 1549.85 230.01" opacity="0.72"></path><path d="M1506.83 357.9C1455.82 380.17 1383.51 407.82 1305.28 440.66 1236.57 473.6 1190.05 511.83 1173.07 554.87 1188.06 597.48 1229.33 643.73 1287.06 691.75 1351.75 736.16 1408.82 778.25 1448.12 814.2 1464.65 840.23 1453.96 854.4 1418.33 853.42 1362.62 839.32 1294.37 810.44 1222.39 769.75 1153.37 727.94 1095.15 688.36 1051.99 661.03 1025.93 657.07 1017.05 680.12 1022.71 733.11 1041.61 809.75 1067.72 900.98 1096.34 990.78 1126.82 1059.32 1152.6 1093.24 1171.27 1082.93 1184.16 1033.48 1187.64 957.2 1182.22 877.71 1169.81 824.97 1150.03 817.12 1124.74 863.38 1094.75 953.13 1061.8 1060.71 1027.61 1150.91 991.28 1192.13 955.54 1169.53 921.49 1090.47 886.79 988.49 854.61 903 825.5 871.69 796.3 911.16 770.41 1006.41 748.15 1118.28 725.88 1198.04 707.77 1209.91 693.61 1150.85 679.35 1046.33 668.8 939.21 661.51 870.93 653.57 865.63 648.07 921.13 644 1011.71 637.8 1103.85 631.21 1160.03 622.61 1160.93 609.32 1106.48 591.47 1013.57 567.33 910.85 536.2 824.96 497.22 778.13 450.02 776.86 397.03 817.33 338.11 882 275.78 949.91 215.3 1005.89 158.62 1032.42 110.54 1024.66 75.7 984.48 56.8 919.12 56.56 840.71 73.43 757.52 106.86 682.64 152.7 622.82 201.5 579.82 248.18 555.95 284.03 547.94 299.8 554.27 292.35 568.6 259.49 585.74 203.88 606.85 132.31 624.31 55.05 635.97 -41.18 647.5 -62.34 633.84 21.94 612.61 95.76 596.33 165.82 576.84 216.83 554.58 235.97 532.31 220.72 507.81 175.72 480.72 109.37 452.98 37.6 421.45 -24.86 385.21 -67.75 347.01 -81.1 302.84 -63.19 252.39 -17.68 200.33 48.13 143.33 123.27 83.63 197.35 27.91 259.65 -24.04 303.09 -66.93 323.72 -95.48 321.59 -107.11 300.47 -98.44 263.64 -72.94 220.09 -31.19 177.15 20.12 124.57 84.08 109.09 63.93 148.75 -45.48 190.95 -139.67 240.91 -229.14 294.89 -292.81 352.08 -314.73 407.94 -289.49 460.34 -223.47 510.32 -140.6 554.82 -65.83 593.78 -27.69 628.87 -44.89 659.07 -115.55 685.36 -220.25 708.82 -323.39 729.93 -389.55 749.8 -392.86 768.32 -333.19 786.9 -232.64 806.28 -132.51 825.32 -77.84 845.84 -91.93 868.1 -171.66 890.37 -283.53 913.85 -376.54 938.17 -411.64 962.16 -375.95 986.31 -283.92 1009.78 -173.35 1031.9 -85.68 1052.03 -52.43 1068.97 -81.07 1083.07 -158.69 1092.42 -251.78 1095.91 -325.22 1095.55 -355.17 1088.67 -329.19 1075.25 -256.6 1059.41 -157.25 1039.04 -59.39 1016.16 13.24 996.5 46.74 979.67 37.61 969.32 -4.63 970.29 -68.14 983.31 -131.58 1010.65 -179.04 1052.33 -202.86 1107.27 -195.34 1172.56 -159.53 1241.79 -100.34 1310.14 -27.62 1370.15 48.49 1414.46 123.5 1438.17 187.87 1437.41 238.52 1413.83 276.06 1369.68 299.51 1311.92 312.07 1227.44 313.43 1175.45 298.01 1238.91 294.88 1309.96 293.83 1388.28 298.34 1459.04 308.75 1508.46 319.28 1525.98 335.63 1506.85 357.89Q1506.83 357.9 1506.83 357.9" opacity="0.45"></path><path d="M1463.83 547.7C1417.03 568.47 1350.82 591.62 1277.64 616.51 1210.1 640.79 1159.22 665.62 1132.3 689.48 1133.07 710.85 1159.02 728.84 1203.9 741.31 1261.26 748.66 1319.23 747.98 1368.39 737.9 1403.27 722.32 1416.82 698.28 1407.76 667.77 1377.78 638.76 1330.01 611.18 1270.47 591.12 1204.28 586.55 1138.65 599.59 1079.12 634.24 1028.76 689.2 991.24 761.84 967.18 844.8 956.67 924.56 957.74 991.3 967.5 1032.29 985.48 1039.8 1006.59 1011.99 1027.82 954.1 1059.15 849.81 1092.75 790.97 1091.91 892.92 1085.67 991.7 1074.33 1082.81 1059 1138.92 1041.14 1142.97 1020.76 1093.03 998.93 1004.9 975.94 911.58 952.65 844.65 929.79 830.83 906.64 878.26 884.51 970.89 863.73 1075.28 842.95 1151.56 824.01 1169.58 806.68 1124.41 789.07 1033.5 772.48 929.64 756.29 848.52 738.93 815.76 720.81 839.24 700.96 906.75 678.6 995.9 653.03 1074.11 623.26 1116.71 589.82 1112.27 551.24 1060.62 507.29 976.9 460.24 880.76 408.9 795.97 354.65 739.51 301.4 719.91 249.35 736.83 201.65 780.54 162.15 841 132.55 900.14 115.82 945.07 112.65 969.96 124.23 967.77 150.05 940.46 185.05 891.62 227.54 828.54 272.09 759.51 310 688.04 337.63 622.86 349.08 567.58 339.6 521.64 309.11 487.82 259.01 464.37 194.62 449.93 123.12 442.06 54.02 437.68 -20.5 437.65 -5.95 431.26 79.86 418.56 148.93 408.64 213.03 393.45 259.83 372.67 278.81 351.89 267.83 326.02 230.18 295.47 171.84 265.08 105.45 230.43 43.1 192.44 -6.4 155.73 -32.98 117.43 -32.93 79.66 -7.15 46.33 41.12 17.29 104.45 -4.27 174.98 -16.84 243.4 -18.13 301.97 -6.33 345.51 14.82 370.38 46.88 376.53 86.32 364.52 123.33 339.14 155.48 305.66 174.59 266.54 172.19 229.43 145.85 198.65 93.74 174.79 21.58 162.56 -63.49 162.4 -148.49 173 -216.74 194.56 -256.81 224.85 -258.86 262.71 -224.05 305.44 -159.41 350.55 -81.79 398.39 -16.6 445.48 18.12 490.43 7.34 535.03 -50.47 576.28 -142.2 613.89 -243.08 650.28 -322.33 683.23 -355.75 713.01 -331.03 741.94 -257.94 768.38 -160.2 792.66 -73.39 816.69 -32.31 839.06 -52.41 859.84 -128.66 880.62 -233.05 899.32 -323.59 915.77 -366.94 931.96 -349.03 945.4 -276 955.67 -174.66 967.85 -48.57 969.86 -94.09 959.1 -216.43 950.16 -282.05 938.18 -307.35 924.46 -286.21 913.47 -224.06 903.87 -136.48 898.03 -44.28 899.76 35.24 909.13 86.19 928.25 103.22 958.15 86.78 998.91 45.97 1049.99 -6.54 1108.01 -62.27 1171.06 -106.37 1234.71 -131.61 1292.73 -136.53 1341.25 -118.64 1374.91 -82.04 1390.4 -29.95 1385.67 30.74 1360.67 93.87 1320.64 158.49 1269.16 217.66 1213.85 269.24 1165.76 315.34 1130.99 352.92 1116.93 383.27 1128.6 408.51 1165.1 429.01 1222.62 446.82 1292.99 462.15 1365.49 477.21 1427.94 493.4 1469.72 508.98 1482.81 526.91 1463.85 547.69Q1463.83 547.7 1463.83 547.7" opacity="0.83"></path><path d="M1421.16 520.04C1378.68 539.34 1318.67 554.79 1250.96 566.24 1185.7 577.33 1132.16 583.75 1097.23 585.11 1085.22 585.54 1095.93 580.48 1126.02 570.13 1171.75 559.67 1224.23 545.39 1275.64 529.18 1336.89 512.28 1352.52 522.17 1304.18 566.22 1254.45 613.86 1197.2 674.69 1137.4 745.33 1078.02 817.15 1023.96 885.44 977.87 941.17 940.64 975.72 913.77 984.55 896.68 964.78 889.12 921.97 889.06 861.95 894.32 797.19 905.22 745.63 917.9 718.2 930.44 725.63 944.49 770.51 955.99 846.12 964.06 937.81 972.93 1053.95 968.17 1040.37 955.63 918.1 945.34 838.45 932.29 790.85 916.89 792.75 901.25 846.13 883.71 935.24 864.41 1032.08 845.12 1104.57 824.53 1127.7 802.58 1095.55 780.4 1019.34 756.42 922.96 730.31 835.6 703.42 781.38 673.76 773.99 641.02 811.69 607.03 882.91 569.63 963.91 528.89 1031.5 487.38 1069.79 443.27 1067 397.54 1024.99 353.32 952.77 309.87 866.35 269.23 783.03 219.9 695.72 175.2 703.07 187.32 770.89 208.12 822.91 238.1 865.92 274.7 893.71 311.71 905.18 347.48 896.99 377.12 871.74 394.42 831.83 397.61 781.99 383.88 727.3 352.41 668.49 305.09 611.79 245.5 559.74 179.94 510.33 114.9 467.58 58.29 431.23 17.3 398.54 -2.61 370.99 1.95 347.24 29.43 325.59 77.29 305.87 138.74 286.98 202.62 268.66 260.68 250.05 303.16 230.76 321.54 211.46 314.12 191.93 283.18 172.67 232.83 153.98 172.87 136.66 112.94 121.92 42.08 105.18 30.94 104.33 92.43 124.54 151.75 143.15 216.54 167.25 279.9 194.38 336.74 217.38 381.73 236.47 412.29 246.65 427.17 242.17 427.24 221.65 415.03 182.58 391.71 127.18 362.61 57.69 331.74 -19.61 299.76 -93.42 272.31 -156.14 251.56 -197.24 236.63 -209.78 230.68 -191.23 233.45 -144.04 243.41 -80.82 260.89 -13.09 284.28 41.92 312.8 66.73 344.84 53.81 378.74 1.39 415.12 -80.33 451.46 -173.89 486.68 -256.01 522.63 -304.61 556.53 -306.45 587.84 -259.7 619.22 -179.79 647.78 -89.09 673.3 -16.68 698.78 11.66 721.27 -13.38 740.56 -85.85 759.86 -182.69 775.51 -269.86 787.6 -319.45 799.67 -317.55 808.14 -264.29 813.16 -177.2 816.13 -109.76 832.12 -224.58 858.53 -129.87 885.51 -45.02 920.17 36.48 962.71 102.08 1011.07 144.64 1065.02 159.89 1122.29 150.64 1178.45 120.19 1231.63 78.4 1277.74 34.18 1323.44 -24.9 1315.74 -57.79 1262.97 -28.44 1216.82 6.32 1167.75 48.4 1122.58 94.01 1089.83 143.65 1073.19 192.2 1076.87 237.67 1102.64 283.03 1148 323.83 1208.23 359.79 1275.61 394.83 1341.24 425.43 1395.41 451.93 1430.17 478.07 1439.54 500.75 1421.16 520.04Q1421.16 520.04 1421.16 520.04" opacity="0.61"></path><path d="M1377.85 315.91C1339.17 333.73 1285.01 347.32 1223.06 357.03 1161.28 367.02 1107.22 373.71 1066.99 377.96 1044.88 383.58 1042.13 388.31 1057.49 393.76 1089.27 402.91 1131.44 415.45 1178.14 433.44 1268.56 488.67 1316.18 577.19 1305.26 696.34 1241.38 813.08 1142.87 902.74 1037.67 922.42 941.33 866.49 871.57 759.68 829.58 674.24 812.63 689.12 811.34 813.32 814.28 977.31 818.63 1034.25 821.59 1057.73 822.42 1041.29 823.71 989.95 822.19 914.44 817.56 833.69 812.92 771.15 805.05 742.55 793.86 757.94 782.64 815.29 768.15 900.02 750.34 989.27 732.53 1057.68 711.81 1084.85 688.35 1064.61 664.84 1003.51 638.53 918.04 609.58 830.73 580.62 762.38 549.14 728.78 515.54 735.11 482.4 778.49 447.8 845.07 412.59 917.31 347.91 1019.84 290.53 995.41 252.58 867.71 239.67 714 258.29 621.61 307.94 616.21 366.45 682.15 422.72 763.45 449.51 815.67 423.34 828.77 343.77 793.05 227.24 729.08 167.48 689.21 113.71 648.26 71.89 608.34 46.48 567.14 40.72 528.88 55.96 494.39 89.31 460 138.13 429.68 196.39 403.58 254.81 377.62 307.17 355.67 345.85 337.86 364 320.05 360.24 306.8 336.02 298.06 293.93 289.47 241.36 285.6 185.72 286.39 132.47 287.29 90.03 292.55 63.25 301.44 53.87 309.05 63.97 318.37 91.83 327.37 188.04 329.61 306.11 306.68 407.26 238.69 468.91 131.58 482.32 -0.85 459.73 -113.49 410.79 -154.8 362.2 -104.67 329.22 11.95 309.99 102.56 315.47 95.07 340.14 -33.54 357.17 -118.84 377.01 -197.02 398.6 -250.46 421.93 -266.86 445.8 -241.78 469.38 -180.31 493.67 -99.89 516.92 -19.65 538.62 37.93 560.48 54.67 580.45 25.72 598.26 -42.66 616.07 -131.91 631.3 -214.85 644.13 -268.69 657.13 -280.59 668.06 -246.76 677.36 -177.35 687.37 -89.73 696.5 -5.71 705.48 55.68 716.21 82.19 728 70.32 741.84 26.44 778.9 -111.43 832.08 -203.7 906.22 -181.49 994.1 -58.97 1093.84 90.06 1189.47 192.69 1258.75 219.7 1287.57 181.18 1263.02 119.35 1198.95 55.1 1112.83 25.24 1042.73 31.75 1027.93 44.62 1029.42 63.72 1048.86 86.88 1085.68 113.74 1136.63 142 1196.75 169.98 1259.27 199.32 1317.08 226.81 1362.7 251.52 1390.44 276.5 1396 298.1 1377.85 315.91Q1377.85 315.91 1377.85 315.91" opacity="0.81"></path><path d="M1334.83 235.26C1251.94 267.91 1138.13 304.82 1041.8 349.57 998.19 399.62 1016.96 465.87 1081.04 551.19 1167.31 640.79 1236.37 736.88 1265.91 817.96 1251.74 859.19 1194.85 847.6 1112.7 778.93 1017.41 692.21 927.84 624.17 853.91 629.11 795.07 724.38 754.52 872.84 726.64 990.97 709.17 1001.87 694.66 896.57 677.24 754.05 662.04 700 639.14 785.04 606.49 946.28 573.83 1041.44 532.96 984.34 486.58 830.8 442.42 703.63 397.53 695.1 358.41 792.42 329.71 919.74 316.47 977.13 324.99 931.97 348.59 809.41 391.28 673.2 443.78 578.86 483.13 547.69 501.3 573.7 481.47 624.84 417.93 686.27 319.59 724.97 209.38 734.54 121.37 724.55 84.01 693.95 115.02 654.98 198.75 610.2 305.94 568.82 388.83 536.16 404.57 503.5 351.55 481.12 258.5 464.32 161.11 441.71 104.99 412.92 109.07 366.33 169.21 300.17 266.93 207.7 371.9 95.95 462.59 -5.52 520.24 -78.42 542.95 -90.07 533.13 -38.54 505.29 58.95 473.97 147.52 439.25 158.7 417.51 72.04 411.44 -79.2 412.51 -200.47 427.09 -210.55 450.95 -96 477.65 44.93 508.54 95.44 541.2 0.33 573.85 -160.91 606.72 -239.37 641.61 -172.75 679.32 -17.62 724.15 106.26 779.66 119.32 842.32 25.14 917.83 -94.04 1002.88 -155.32 1084.52 -126.26 1159.25 -19.51 1211.88 110 1231.97 221.47 1213.05 279.94 1156.36 289.04 1085.39 258.29 1016.95 215.97 980.73 182.95 1000.58 154.22 1075.28 147.38 1185.26 158.91 1290.91 175.75 1350.57 202.6 1334.85 235.25Q1334.83 235.26 1334.83 235.26" opacity="0.97"></path><path d="M1291.83 396.89C1218.44 426.58 1115.82 471.05 1020.94 528.14 962.86 583.98 955.13 648.02 991.81 710.95 1060.85 758.41 1133.09 785.14 1186.59 777.14 1213.55 739.69 1203.17 673.18 1161.67 600.27 1096.42 562.38 1019.34 579.79 942.28 666.77 866.15 795.19 800.8 916.07 747.38 965.57 700.65 917.27 662.67 796.36 630.08 681.87 599.87 661.81 570.69 755.46 541.01 903.28 511.32 995.69 482.54 962.04 456.76 833.11 425.35 666.65 422.84 838.1 461.44 925.28 492.75 884.19 527.21 782.54 553.56 664.5 556.15 559.8 531.33 497.14 473.46 475.91 389.06 490.11 290.19 520.07 199.4 547.98 140.95 577.97 131.79 591.84 178.41 588.85 261.83 582.78 358.44 563.86 431.83 534.17 449.35 504.49 409.2 465.45 330.91 415.54 239.01 362.55 170.63 294.69 146.3 213.25 169.21 133.89 234.79 55.05 323.48 -4.9 419.07 -29.44 501.79 -9.41 561.59 56.36 596.34 135.5 607.74 201.96 604.26 212.16 587.04 144.47 569.05 17.09 557.04 -113.96 544.33 -177.02 542.28 -134.93 551.46 -9.44 561.69 108.03 581.84 135.7 611.52 43.33 641.2 -104.49 679.02 -192.16 724.78 -160.66 771.57 -34.73 827.63 103.08 891.78 173.15 955.24 145.43 1022.11 51.17 1085.09 -46.34 1134.33 -102.41 1165.55 -84.63 1169.72 -7.84 1148.83 103.97 1101.31 213.09 1036.63 296.3 978.85 350.05 939.88 372.2 938.72 376.19 984.8 364.71 1070.06 354.67 1173.42 354.81 1263.17 353.7 1309.35 367.2 1291.85 396.88Q1291.83 396.89 1291.83 396.89" opacity="0.25"></path><path d="M1248.85 563.08C1184.67 589.8 1093.86 619.26 1003.71 647.79 922.11 679.99 989.86 658.55 1078 591.62 1127.97 545.56 1153.9 508.88 1153.74 503.64 1131.34 545.15 1089.05 632.77 1035.48 750.01 972.9 856.28 910.17 915.79 852.44 897.52 795.09 812.68 745.41 698.43 703.95 619.25 663.47 628.81 629.81 726.48 603.09 860.27 576.37 948.6 557.86 935.46 547.96 834.59 555.77 679.71 617.09 861.61 606.44 781.4 571.58 682.55 513.97 582.84 436.19 501.06 350.05 439.45 266.45 403.92 203.3 386.16 174.62 382.77 188.87 382.67 245.44 377.6 325.27 374.97 410.67 361.54 474.85 334.82 493.49 308.1 464.98 269.37 401.97 221.61 320.08 176.3 247.78 127.8 203.81 84.88 194.2 56.34 223.71 47.88 282.7 68.3 361.14 108.91 444.35 170.26 520.25 234.09 585.25 268.3 632.73 258.61 664.11 191.11 681.36 81.4 689.34 -38.68 693.96 -119.08 693.05 -122.75 695.47 -45.04 704.54 76.29 712.79 166.86 729.72 174.61 756.43 86.32 783.15 -47.47 818.4 -139.75 860.53 -139.03 901.84 -49.55 948.02 79.9 995.24 184.33 1036.91 222.2 1072.94 186.66 1096.86 108.21 1106.66 18.78 1097.53 -37.16 1067.56 -43.65 1026.67 -3.4 975.14 71.63 924.51 158.87 893.34 250.43 887.79 327.51 916.99 386.15 980.54 432.83 1068.05 465.8 1160.24 491.8 1233.56 513.66 1267.49 536.36 1248.85 563.08Q1248.85 563.08 1248.85 563.08" opacity="0.56"></path><path d="M1206.03 489.28C1150.87 513.03 1072.29 525.44 989.66 526.21 894.95 488.32 1031.09 457.8 1079.92 541.31 1094.27 629.84 1090.38 730.43 1071.75 818.36 1042 866.35 1004.24 859.16 963.68 793.87 919.23 699.58 876.89 609.42 839.58 567.49 801.73 600.61 770.26 697.89 746.51 817.16 722.76 900.09 707.86 904.02 700.93 832.17 693.45 718.11 692.58 611.15 695.88 550.54 695.29 552.53 693.94 606.65 687.08 683.57 669.11 760.95 638.91 807.15 593.43 813 534.85 781.76 463.95 721.29 387.21 648.11 316.01 567.18 258.11 494.11 225.35 434.17 223.11 381.12 254.63 340.51 315.63 308.79 389.11 280.15 462.87 254.96 518.03 231.21 536.97 207.47 518.51 186.28 470.43 170.13 401.74 157.07 332.93 154.48 279.15 166.37 246.16 185.15 243.38 219.12 268.42 263.45 316.04 300.02 378.88 326.4 447.13 326.51 517.52 289.53 581.25 215.18 634.97 113.07 681.02 11.42 716.9 -63.98 745.01 -83.38 767.62 -40.18 786.95 53.25 805.91 158.15 823.37 220.83 843.38 212.09 867.13 129.16 890.88 9.89 917.24 -82.56 944.56 -106.52 970.39 -55.43 994.26 48.24 1012.81 159.93 1025.86 242.63 1029.08 271.13 1019.64 247.86 1002.52 184.66 972.88 112.22 933.61 54.82 896.49 19.64 861.81 19.32 838.92 47.51 838.61 97.91 862.68 159.57 913.08 221.38 984.28 286.26 1066.6 342.44 1144.46 387.56 1201.7 431.57 1224.97 465.53 1206.03 489.28Q1206.03 489.28 1206.03 489.28" opacity="0.15"></path><path d="M1162.83 284.21C1116.03 304.99 1049.62 317.57 976.73 323.92 908.63 332.27 855.32 338.63 822.49 348.09 812.73 366.51 823.05 396.25 847.6 442.32 884.6 501.8 923.41 576.61 957.78 659.7 999.77 764.22 1017.25 779.2 998.1 671.05 978.65 591.42 955.71 535.33 931.95 527.57 907.07 577.09 883.57 669.9 862.79 774.28 842.01 850.56 824.93 867.68 810.62 823.45 795.2 735.21 780.34 633.28 763.77 549.12 742.94 502.19 716.68 500.59 682.62 535.25 641.49 596.31 590.99 660.15 532.1 710.53 470.5 744.5 407.05 751.77 348.41 736.24 302.23 702.82 273.27 657.75 267.8 609.56 285.39 556.46 326.88 508.12 386.96 467.99 451.83 427.76 514.03 396.69 560.83 375.91 579.81 355.13 570.21 345.63 536.43 346.67 482.88 347.61 423.37 358.15 368.9 375.23 310.41 392.84 322.05 364.61 381.34 284.85 434.19 207.24 490.05 118.76 544.09 36.06 598.05 -20.23 646.33 -37.26 687.89 -5.56 727.09 63.35 760.47 153.46 788.78 233.68 816.12 269.89 840.08 248.56 860.86 172.28 889.95 23.6 923.2 -12.46 922.23 116.36 916.68 213.05 902.63 285.06 880.69 320.11 858.67 315.96 832.65 282 807.03 234.02 790.74 178.16 783.82 133.19 791.7 105.73 818.21 91.69 862.87 96.17 923.57 113.76 993.28 140.31 1064.61 171.76 1126.18 202.59 1167.99 235.43 1181.81 263.42 1162.85 284.2Q1162.83 284.21 1162.83 284.21" opacity="0.61"></path><path d="M1119.98 249.23C1081.38 267.04 1027.07 288.96 965.46 315.58 903.65 343.67 848.7 378.97 805.77 422.6 766.09 517.74 781.46 639.49 821.91 740.83 878.94 766.1 915.57 689.38 923.22 549.61 924.11 500.03 918.98 479.62 908.81 498.92 897.89 557.19 883.28 641.95 865.47 731.19 847.66 799.6 827.49 825.81 804.82 805.7 781.4 746.8 754.13 664.57 722.37 579.77 652.99 461.58 560.76 461.13 457.04 530.61 343.33 648.2 382.6 645.88 459.95 616.57 514.68 594.49 565.38 573.63 603.98 555.82 622.03 538.01 619.26 524.09 597.99 512.58 559.77 499.28 513.33 484.91 465.81 465.94 378.51 408.91 343.05 306.74 361.36 165.74 418.44 49.57 496.82 12.24 570.61 104.32 608.82 176.07 642.94 248.15 671.9 300.18 700.78 313.42 724.48 283.6 742.29 215.19 760.1 125.95 771.18 44.8 775.88 -6.58 780.52 -19.01 778.8 11.52 771.46 74.16 759.4 240.04 736.62 354.55 726.22 375.96 754.6 321.31 827.85 255.16 941.25 221.75 1001.84 208.99 1058.42 206.09 1103.5 211.59 1131.66 218.56 1138.03 231.42 1119.98 249.23Q1119.98 249.23 1119.98 249.23" opacity="0.22"></path><path d="M1076.83 436.05C1003.44 465.74 900.28 523.54 805.94 596.51 740.53 657.32 713.32 702.44 714.24 696.85 752.09 591.97 785.77 492.58 752.42 688.28 722.73 780.69 673.51 746.19 609.34 625.15 546.09 488.49 474.12 406.73 410.18 391.77 370.36 430.91 366.08 481.66 409.73 511.72 482.31 538.77 573.44 536.27 646.83 506.58 664.35 476.89 628.88 422.84 564.2 344.34 485.13 262.83 428.45 165.76 406.16 87.71 408.62 63.76 438.18 114.04 478.63 228.94 526.68 328.22 570.16 350.69 599.85 258.28 629.54 110.46 642.62 26.72 646.01 54.31 657.01 167.12 673.77 299.39 710.21 392.78 771.41 437.29 859.56 438.49 960.39 429.12 1046.83 407.6 1094.35 406.36 1076.85 436.04Q1076.83 436.05 1076.83 436.05" opacity="0.55"></path><path d="M1033.83 569.75C978.52 593.49 899.44 615.65 818.7 626.31 747.15 625.95 695.3 597.76 664.02 538.28 650.3 475.17 646.05 413 641.54 388.49 641.49 427.97 631.9 526.01 608.15 645.28 584.4 728.22 548.74 730.55 507.63 663.65 471 557.16 438.18 452.99 420.77 379.52 420.93 337.07 447.59 323.78 501.73 320.77 565.07 327.88 634.52 324.22 689.83 300.48 708.97 276.73 694.06 235.13 656.11 186.87 599.4 148.72 546.81 124.95 510.31 136.27 482.05 178.62 474.32 257.6 482.63 346.68 496.23 396.18 517.37 384.22 541.12 301.28 564.86 182.01 588.98 93.59 616.53 71.52 649.37 113.44 694.17 200.79 753.56 295.04 821.18 385.64 898.96 450.89 973.07 492.41 1028.43 522.9 1052.97 546 1033.83 569.75Q1033.83 569.75 1033.83 569.75" opacity="0.88"></path><path d="M990.83 453.76C898.19 489.38 771.67 448.23 679.21 366.55 615.28 344.69 576.67 428.33 541.05 602.28 505.42 698.82 479.53 615.95 496.78 479.61 542.55 348.83 640.19 276.37 732.83 240.75 746.16 205.12 697.42 213.08 645.14 297.17 586.98 386.83 574.21 440.82 609.83 344.28 645.45 170.33 722.72 115.57 827.57 184.11 926.54 312.48 1004.15 418.13 990.85 453.75Q990.83 453.76 990.83 453.76" opacity="0.13"></path><path d="M947.83 258.69C892.53 282.44 812.58 282.72 742.14 293.36 674.79 340.56 625.19 440.02 601.45 559.28 577.7 642.22 584.3 641.24 620.52 588.87 659.83 508.53 720.53 438.99 775.83 415.25 790.83 404.77 735.88 479.36 754.45 387.28 778.19 268.02 831.56 187.82 891.75 171.74 939.44 192.23 966.97 234.94 947.83 258.69Q947.83 258.69 947.83 258.69" opacity="0.83"></path></g></svg>